HIERARCHY
ROOT Hips
{
	OFFSET -3.958830 18.904000 13.208200
	CHANNELS 6 Xposition Yposition Zposition Zrotation Yrotation Xrotation 
	JOINT LHipJoint
	{
		OFFSET 0.000000 0.000000 0.000000
		CHANNELS 3 Zrotation Yrotation Xrotation
		JOINT LeftUpLeg
		{
			OFFSET 1.800000 -1.400000 0.085000
			CHANNELS 3 Zrotation Yrotation Xrotation
			JOINT LeftLeg
			{
				OFFSET 2.215000 -6.000000 0.000000
				CHANNELS 3 Zrotation Yrotation Xrotation
				JOINT LeftFoot
				{
					OFFSET 2.500000 -6.900000 0.000000
					CHANNELS 3 Zrotation Yrotation Xrotation
					JOINT LeftToeBase
					{
						OFFSET 0.200000 -0.500000 1.950000
						CHANNELS 3 Zrotation Yrotation Xrotation
						End Site
						{
							OFFSET 0.000000 0.000000 0.000000
						}
					}
				}
			}
		}
	}
	JOINT RHipJoint
	{
		OFFSET 0.000000 0.000000 0.000000
		CHANNELS 3 Zrotation Yrotation Xrotation
		JOINT RightUpLeg
		{
			OFFSET -1.800000 -1.400000 0.085000
			CHANNELS 3 Zrotation Yrotation Xrotation
			JOINT RightLeg
			{
				OFFSET -2.215000 -6.000000 0.000000
				CHANNELS 3 Zrotation Yrotation Xrotation
				JOINT RightFoot
				{
					OFFSET -2.500000 -6.900000 0.000000
					CHANNELS 3 Zrotation Yrotation Xrotation
					JOINT RightToeBase
					{
						OFFSET -0.200000 -0.500000 1.950000
						CHANNELS 3 Zrotation Yrotation Xrotation
						End Site
						{
							OFFSET 0.000000 0.000000 0.000000
						}
					}
				}
			}
		}
	}
	JOINT LowerBack
	{
		OFFSET 0.000000 0.000000 0.000000
		CHANNELS 3 Zrotation Yrotation Xrotation
		JOINT Spine
		{
			OFFSET -0.087000 1.940000 -0.288900
			CHANNELS 3 Zrotation Yrotation Xrotation
			JOINT Spine1
			{
				OFFSET 0.000000 1.950000 0.060000
				CHANNELS 3 Zrotation Yrotation Xrotation
				JOINT Neck
				{
					OFFSET 0.000000 0.000000 0.000000
					CHANNELS 3 Zrotation Yrotation Xrotation
					JOINT Neck1
					{
						OFFSET 0.000000 1.600000 0.340000
						CHANNELS 3 Zrotation Yrotation Xrotation
						JOINT Head
						{
							OFFSET 0.000000 1.667000 -0.240000
							CHANNELS 3 Zrotation Yrotation Xrotation
							End Site
							{
								OFFSET 0.000000 0.000000 0.000000
							}
						}
					}
				}
				JOINT LeftShoulder
				{
					OFFSET 0.000000 0.000000 0.000000
					CHANNELS 3 Zrotation Yrotation Xrotation
					JOINT LeftArm
					{
						OFFSET 2.700000 1.550000 -0.730000
						CHANNELS 3 Zrotation Yrotation Xrotation
						JOINT LeftForeArm
						{
							OFFSET 5.450000 0.000000 0.000000
							CHANNELS 3 Zrotation Yrotation Xrotation
							JOINT LeftHand
							{
								OFFSET 3.450000 0.000000 0.000000
								CHANNELS 3 Zrotation Yrotation Xrotation
								JOINT LeftHandIndex1
								{
									OFFSET 0.750000 0.000000 0.000000
									CHANNELS 3 Zrotation Yrotation Xrotation
									End Site
									{
										OFFSET 0.000000 0.000000 0.000000
									}
								}
							}
						}
					}
				}
				JOINT RightShoulder
				{
					OFFSET 0.000000 0.000000 0.000000
					CHANNELS 3 Zrotation Yrotation Xrotation
					JOINT RightArm
					{
						OFFSET -2.700000 1.550000 -0.730000
						CHANNELS 3 Zrotation Yrotation Xrotation
						JOINT RightForeArm
						{
							OFFSET -5.450000 0.000000 0.000000
							CHANNELS 3 Zrotation Yrotation Xrotation
							JOINT RightHand
							{
								OFFSET -3.450000 0.000000 0.000000
								CHANNELS 3 Zrotation Yrotation Xrotation
								JOINT RightHandIndex1
								{
									OFFSET -0.750000 0.000000 0.000000
									CHANNELS 3 Zrotation Yrotation Xrotation
									End Site
									{
										OFFSET 0.000000 0.000000 0.000000
									}
								}
							}
						}
					}
				}
			}
		}
	}
}
MOTION
Frames: 4
Frame Time: 0.016667
-0.276850 15.269340 -1.218020 -4.311776 1.965845 -2.832797 -15.239000 12.979499 2.489665 5.507679 -5.803360 21.128753 -3.510268 11.237099 41.206308 0.862582 10.459585 1.384277 -0.264140 -0.717220 -0.225750 18.588057 -7.993261 5.197840 -8.333807 3.750651 -60.463076 14.166480 -19.337538 56.581727 -1.322619 -10.569642 0.581891 -0.325380 0.914250 0.520910 -3.926141 -4.634225 -8.506811 21.757537 -20.693211 38.606610 -0.850632 -17.133709 6.882309 -0.571660 -4.160101 -6.694299 -13.171498 7.239645 46.074969 -7.539630 5.038070 9.112620 1.881233 4.558383 -0.474393 21.412905 15.956229 5.323734 48.605777 -70.341741 -27.424228 -4.281697 3.263010 0.470180 0.487160 -0.224400 0.229140 1.328559 -8.070284 2.121668 7.446135 -18.288104 -6.155097 -108.293473 46.309555 -54.731498 2.275205 -1.539836 -0.446910 0.222040 0.420830 0.038160 
-0.269540 15.295240 -1.207550 -4.419143 1.936508 -1.443391 -15.207940 12.908217 2.405659 5.505038 -5.736957 19.521270 -3.582079 11.153950 41.163880 0.766993 10.377547 1.381563 -0.273290 -0.737010 -0.216190 18.638679 -7.977931 5.256793 -8.558721 4.046374 -60.966668 14.995023 -19.225041 54.934974 -1.268169 -10.328281 0.633798 -0.318880 0.907940 0.524150 -4.046627 -4.463608 -8.455333 23.023151 -20.798963 35.663296 -1.306261 -17.216217 8.064670 -0.447209 -4.602445 -6.992784 -14.444472 7.547322 47.315882 -8.445890 4.864550 8.508230 2.155218 5.195687 -0.289000 17.949154 16.138267 4.459841 51.629879 -71.359754 -30.232504 -4.256283 3.117919 0.491720 0.486590 -0.223810 0.200940 0.745787 -8.389471 2.558244 8.385425 -17.160959 -5.517864 -113.529752 46.016168 -61.253782 2.236456 -1.556538 -0.463780 0.242020 0.456840 0.016590 
-0.282190 15.389240 -1.170180 -4.700821 -0.176978 0.834617 -15.074287 12.690672 2.307230 5.018908 -4.675898 17.723603 -3.773711 10.925848 39.154868 0.680375 10.007639 1.527019 -0.348380 -0.849930 -0.236060 18.790205 -8.133842 5.312279 -7.369784 5.900802 -61.000338 15.184756 -17.750526 51.734051 -1.085753 -9.537512 0.883488 -0.378480 0.959720 0.493840 -4.467861 -3.652559 -8.325266 25.460236 -20.671429 30.805584 -4.359598 -17.269972 10.382004 -0.320920 -5.109516 -8.462650 -15.458955 8.791933 49.131276 -8.490850 5.845350 11.219390 2.386067 4.900568 0.444623 11.865388 18.637653 2.479929 78.778092 -75.898293 -51.288438 -3.769044 1.373474 0.502350 0.497840 -0.258200 0.190240 -0.284759 -7.846575 4.709641 14.727817 -13.662056 -3.822575 -126.708738 48.070884 -85.773737 2.206985 -1.716282 -0.514250 0.276750 0.489180 0.011570 
-0.301120 15.542040 -1.143790 -5.616847 -3.110483 2.846511 -14.975737 12.589597 2.262289 5.185318 -3.440591 15.355493 -4.420434 11.112652 37.364047 0.601616 9.779857 1.661415 -0.558410 -1.090070 -0.414100 18.858482 -8.436613 5.322848 -4.130371 8.830021 -59.269602 12.765733 -14.550018 47.513819 -0.709699 -8.133512 1.404023 -0.486430 1.150000 0.461470 -4.712814 -2.774421 -8.252232 27.488292 -18.263291 27.921970 -5.606984 -14.786580 12.430159 0.158597 -4.435245 -10.121518 -12.926580 7.618502 48.737306 -7.119020 5.133610 15.128450 1.433313 5.994706 3.977110 3.321502 13.728200 5.200858 109.260199 -68.139361 -83.987336 -4.373492 1.252889 0.463700 0.606770 -0.382890 0.176370 -0.697292 -8.414536 5.210812 22.328946 -10.982191 -3.283020 -148.714984 56.596288 -134.624534 2.067690 -2.134396 -0.613180 0.362020 0.620870 0.036040 
